<?xml version="1.0" encoding="UTF-8"?>
<!DOCTYPE svg PUBLIC "-//W3C//DTD SVG 1.1//EN" "http://www.w3.org/Graphics/SVG/1.1/DTD/svg11.dtd">
<!-- Creator: CorelDRAW -->
<svg xmlns="http://www.w3.org/2000/svg" xml:space="preserve" width="60px" height="60px" style="shape-rendering:geometricPrecision; text-rendering:geometricPrecision; image-rendering:optimizeQuality; fill-rule:evenodd; clip-rule:evenodd"
viewBox="0 0 2048 2048"
 xmlns:xlink="http://www.w3.org/1999/xlink">
 <defs>
  <style type="text/css">
   <![CDATA[
    .fil1 {fill:none}
    .fil0 {fill:#607D8B}
    .fil2 {fill:#FFFFFE;fill-rule:nonzero}
   ]]>
  </style>
 </defs>
 <g id="Layer_x0020_1">
  <metadata id="CorelCorpID_0Corel-Layer"/>
  <rect class="fil0" width="2048" height="2048"/>
  <rect class="fil1" x="255.999" y="255.999" width="1536" height="1536"/>
  <g id="_489950848">
   <path id="_489950944" class="fil2" d="M1042.4 555.362c132.175,0 251.843,53.5796 338.468,140.203 86.6233,86.6245 140.203,206.293 140.203,338.468 0,132.176 -53.5784,251.844 -140.203,338.466 -86.6221,86.6245 -206.293,140.203 -338.468,140.203 -132.178,0 -251.848,-53.5784 -338.469,-140.201 -86.6221,-86.6221 -140.201,-206.291 -140.201,-338.469 0,-132.175 53.5784,-251.845 140.202,-338.469 86.6233,-86.6233 206.291,-140.202 338.468,-140.202zm298.744 179.927c-76.454,-76.4528 -182.075,-123.742 -298.744,-123.742 -116.668,0 -222.291,47.2878 -298.744,123.741 -76.4528,76.4528 -123.741,182.077 -123.741,298.745 0,116.669 47.2878,222.294 123.739,298.745 76.4505,76.4516 182.075,123.739 298.745,123.739 116.668,0 222.292,-47.2878 298.745,-123.741 76.4528,-76.4528 123.741,-182.075 123.741,-298.744 0,-116.668 -47.289,-222.29 -123.742,-298.744z"/>
   <path id="_489950896" class="fil2" d="M1042.4 707.158c90.2587,0 171.979,36.5894 231.132,95.7414 59.152,59.1532 95.7414,140.874 95.7414,231.132 0,90.2587 -36.5894,171.978 -95.7414,231.131 -59.1532,59.152 -140.874,95.7414 -231.132,95.7414 -90.2587,0 -171.979,-36.5894 -231.132,-95.7414 -59.152,-59.1532 -95.7414,-140.873 -95.7414,-231.131 0,-90.2587 36.5894,-171.979 95.7414,-231.132 59.1532,-59.152 140.874,-95.7414 231.132,-95.7414zm191.408 135.465c-48.9827,-48.9827 -116.658,-79.2804 -191.408,-79.2804 -74.7508,0 -142.426,30.2977 -191.408,79.2804 -48.9827,48.9827 -79.2804,116.658 -79.2804,191.408 0,74.7508 30.2977,142.425 79.2804,191.407 48.9827,48.9827 116.658,79.2804 191.408,79.2804 74.7508,0 142.426,-30.2977 191.408,-79.2804 48.9827,-48.9827 79.2804,-116.656 79.2804,-191.407 0,-74.7508 -30.2977,-142.426 -79.2804,-191.408z"/>
  </g>
  <g id="_489950584">
   <path id="_489950776" class="fil2" d="M465.079 791.6c32.3717,-7.65119 59.9434,-29.5406 78.4808,-59.7213 19.1492,-31.1752 28.6937,-70.9134 24.3673,-113.235l0 -0.375591c-5.10237,-55.891 -24.7855,-123.04 -54.104,-172.713 -20.7036,-35.0764 -44.9658,-60.0567 -69.4501,-61.363 -24.4547,1.30512 -48.6709,26.2453 -69.3461,61.2733 -29.3292,49.689 -49.0264,116.884 -54.2079,172.802l0 0.250394c-4.33229,43.0075 5.47678,83.243 25.0606,114.509 18.926,30.2173 47.0351,51.9237 80.0245,58.9997 3.62599,0.773623 11.6315,1.13622 20.1071,1.04882 7.68662,-0.0791339 15.0921,-0.562205 18.9425,-1.47638l0.125197 0zm132.982 -26.4709c-27.3177,44.4744 -68.8595,76.9571 -118.364,88.6938l0.00708662 0.0283465c-7.9193,1.8815 -20.7118,2.84646 -33.1914,2.97638 -12.8835,0.133465 -26.2158,-0.667323 -33.8575,-2.29843 -50.4107,-10.8142 -92.7993,-43.0807 -120.777,-87.7501 -26.824,-42.8244 -40.3359,-97.1646 -34.5591,-154.511l0.0236221 0.00236221c6.00709,-64.4008 28.7752,-141.859 62.6835,-199.306 31.3996,-53.1969 73.4032,-91.0477 123.473,-92.5631l1.7504 0c50.0918,1.51536 92.1497,39.4111 123.576,92.6528 33.8859,57.4111 56.6339,134.757 62.5678,199.093l0.0354331 -0.00354331c5.80394,56.7603 -7.2567,110.478 -33.3673,152.986z"/>
   <path id="_489950680" class="fil2" d="M428.807 1656.21c-0.0188977,0.444095 -0.0330709,-0.0744095 -0.0318898,0.222047 0.0200788,3.24803 2.06221,7.61457 5.48386,11.6575 2.8311,3.34607 6.24213,5.79685 9.49961,5.93977 0.523229,0.022441 0.285827,0.0389764 0.490158,0.0377953l0.250394 0c0.261024,0.0011811 -0.111024,-0.0165354 0.479528,-0.0437008 3.28465,-0.155906 6.71339,-2.61851 9.55158,-5.97402 3.4004,-4.01929 5.42953,-8.34213 5.44725,-11.5406 0.0011811,-0.346063 -0.0141732,0.298819 -0.0366142,-0.173622l0 -0.499607 -14.9374 -440.156c-0.407481,0.056693 -0.811418,0.15 -1.20354,0.279921l-14.9929 439.876 0 0.37441zm-63.7831 0.472441c-0.00826772,-1.45394 0.00236221,-2.5311 0.0318898,-3.22205l0.0129921 0 15.0709 -442.181 0 -1.5c2.13662,-26.5406 18.4984,-44.2394 38.9788,-52.6607 8.43426,-3.4689 17.6551,-5.23583 26.7886,-5.25237 9.30709,-0.0165354 18.6437,1.79764 27.1169,5.48977 19.3606,8.44253 34.0689,25.4681 35.5914,51.463l0 0.750001 15.0602 443.768 0.0165354 -0.0011811c0.0330709,0.712205 0.0448819,1.86851 0.0366142,3.42402 -0.101575,17.798 -7.71497,37.4906 -20.4473,52.5414 -13.2933,15.7134 -32.4969,27.3862 -55.3028,28.474 -0.779528,0.0366142 -1.99134,0.0507874 -3.59882,0.0448819 -1.47756,0.00826772 -2.59843,-0.00472441 -3.37087,-0.0389764 -22.9004,-1.01102 -42.1666,-12.6815 -55.5012,-28.4398 -12.7465,-15.0626 -20.3681,-34.7988 -20.4839,-52.6583z"/>
   <polygon id="_489950632" class="fil2" points="475.498,826.508 475.498,1178.56 411.496,1178.56 411.496,826.508 "/>
  </g>
  <path class="fil2" d="M1641.24 1653.08c-0.0200788,0.484252 -0.0318898,0.243307 -0.0318898,0.435827 0.0259843,3.96614 2.2252,9.05434 5.90906,13.5815 2.82047,3.46654 6.10749,5.99646 9.09331,6.12166 0.500788,0.0212599 0.295276,0.0330709 0.47126,0.0330709l0.250394 0c0.238583,0.0011811 -0.0885827,-0.0153543 0.451181,-0.0389764 3.01772,-0.137008 6.32363,-2.67756 9.15119,-6.15237 3.66496,-4.50473 5.85473,-9.5504 5.87717,-13.4646 0.0011811,-0.240945 -0.0141732,0.121654 -0.0366142,-0.390945l0 -0.37441 -14.9811 -460.263c-0.359055,0.0744095 -0.72756,0.190158 -1.09488,0.346063l-0.0248032 -0.056693 -15.0343 459.974 0 0.249213zm-63.7831 0.686221c-0.00708662,-1.40906 0.00354331,-2.47441 0.0318898,-3.18544l0.00826772 0 15.0756 -461.228 0 -1.3748c2.08583,-27.0638 18.3685,-45.176 38.7248,-53.8146 8.46497,-3.59292 17.7591,-5.42363 27.0177,-5.44725 9.33898,-0.0236221 18.7075,1.84961 27.2315,5.66575 19.3181,8.6504 34.0193,26.0303 35.5004,52.4351l0 0.750001 15.0673 462.889 0.011811 0c0.0330709,0.734646 0.0448819,1.87914 0.0366142,3.39095 -0.108662,18.0284 -7.60276,38.074 -20.126,53.4662 -13.3618,16.4209 -32.7579,28.5945 -55.904,29.6516 -0.729922,0.0330709 -1.84016,0.046063 -3.32008,0.0401575 -1.35591,0.00590552 -2.40118,-0.00590552 -3.10158,-0.034252 -23.2406,-0.981497 -42.6969,-13.1539 -56.0965,-29.6209 -12.5362,-15.4063 -20.0386,-35.4945 -20.1579,-53.5831zm78.8422 -460.852l0.0200788 -0.185433 -0.0401575 -0.00354331 -0.00472441 0.132284 0.0248032 0.056693z"/>
  <path class="fil2" d="M1688.81 342.051c0,-17.6728 -14.328,-32.0008 -32.0008,-32.0008 -17.6728,0 -32.0008,14.328 -32.0008,32.0008l0 813.129c0,17.6728 14.328,32.0008 32.0008,32.0008 17.6728,0 32.0008,-14.328 32.0008,-32.0008l0 -813.129z"/>
  <path class="fil2" d="M1656.93 818.311c5.40355,-0.0212599 10.4858,-1.3878 14.9351,-3.77717l-6.72048 -58.8697c-2.62087,-0.708662 -5.37402,-1.09134 -8.21457,-1.10197l-0.125197 31.8733 0.125197 31.8756zm14.9351 -3.77717c4.97953,-2.6752 9.16418,-6.63426 12.1146,-11.4331l-16.9937 -46.8792c-0.605906,-0.204331 -1.22008,-0.389764 -1.84134,-0.557481l6.72048 58.8697zm12.1146 -11.4331c3.00118,-4.88386 4.72441,-10.637 4.70079,-16.7906 -0.0555119,-14.0008 -9.12875,-25.8567 -21.6945,-30.0886l16.9937 46.8792zm-27.1748 -48.5398l-0.125197 -0.0011811c-2.36457,0.00944883 -5.15079,-0.152362 -8.03268,-0.488977 -1.11142,-0.129921 -0.865749,0.121654 -1.23898,-0.0129921 -18.6071,-6.72756 -34.2579,-27.7087 -45.3544,-57.3473 -13.1138,-35.0233 -18.952,-80.5253 -15.6732,-129.595l0.0543308 0.00354331c0.0519685,-0.785434 0.0744095,-1.56496 0.0708662,-2.33977l1.51772 -25.3016c3.19488,-53.1544 6.90945,-114.957 9.16772,-162.758 0.827953,-17.6043 -12.7713,-32.5477 -30.3756,-33.3756 -17.6043,-0.827953 -32.5477,12.7713 -33.3756,30.3756 -2.09173,44.302 -5.89607,107.578 -9.16772,162.007l-1.51417 25.2437c-0.0779528,0.62126 -0.140551,1.24725 -0.183071,1.88032l0.0696851 0.00472441 0 0.00590552 -0.0153543 -0.0011811c-3.87048,57.9201 3.44882,112.772 19.6725,156.101 17.6043,47.0197 46.1504,81.6485 83.3552,95.1001 4.68898,1.70079 10.1386,2.85355 15.7406,3.51142 4.40197,0.516142 9.80079,0.758268 15.4075,0.739371 5.60552,0.0188977 11.0055,-0.223229 15.4075,-0.739371 5.60079,-0.657875 11.0516,-1.81063 15.7406,-3.51142 37.2036,-13.4492 65.7508,-48.0792 83.3552,-95.0989 16.2236,-43.3288 23.5429,-98.1804 19.6725,-156.102l-0.0153543 0.0011811 0 -0.00590552 0.0696851 -0.00472441c-0.0425197,-0.633071 -0.105118,-1.25906 -0.183071,-1.88032l-1.52126 -25.3618c-3.27047,-54.4028 -7.07008,-117.617 -9.16064,-161.889 -0.827953,-17.6043 -15.7713,-31.2036 -33.3756,-30.3756 -17.6043,0.827953 -31.2036,15.7713 -30.3756,33.3756 2.25473,47.7626 5.96693,109.511 9.16064,162.64l1.5248 25.4197c-0.00354331,0.774804 0.0188977,1.55433 0.0708662,2.33977l0.0543308 -0.00354331c3.27874,49.0725 -2.55945,94.5745 -15.6732,129.597 -11.0965,29.6386 -26.7461,50.6197 -45.3544,57.3461 -0.372048,0.134646 -0.12874,-0.116929 -1.23898,0.0129921 -2.88189,0.336614 -5.6693,0.498426 -8.03268,0.488977l-0.125197 0.0011811zm-0.125197 0.0011811l0.125197 31.8733 -0.125197 31.8756c-5.40355,-0.0212599 -10.4858,-1.3878 -14.9351,-3.77717l6.72048 -58.8697c-0.62126,0.167717 -1.23543,0.35315 -1.84134,0.557481l-16.9937 46.8792c2.9504,4.79882 7.13504,8.75788 12.1146,11.4331l6.72048 -58.8697c2.62087,-0.708662 5.37402,-1.09134 8.21457,-1.10197zm-10.0559 1.65945l-16.9937 46.8792c-3.00118,-4.88386 -4.72441,-10.637 -4.70079,-16.7906 0.0555119,-14.0008 9.12875,-25.8567 21.6945,-30.0886z"/>
  <rect class="fil1" x="256" y="256" width="15" height="15"/>
 </g>
</svg>
